<svg xmlns="http://www.w3.org/2000/svg" width="23" height="22" fill="none" viewBox="0 0 23 22"><path fill="#5d9ce5" d="M20.188 0h-2.117v2.118a.707.707 0 0 1-.706.706.707.707 0 0 1-.706-.706V0H5.365v2.118a.707.707 0 0 1-.706.706.707.707 0 0 1-.706-.706V0H1.835C.776 0 0 .918 0 2.118v2.54h22.588v-2.54c0-1.2-1.27-2.118-2.4-2.118M0 6.141V19.06c0 1.27.776 2.117 1.906 2.117h18.353c1.13 0 2.4-.917 2.4-2.117V6.14zM6.282 18H4.588a.557.557 0 0 1-.564-.565v-1.764c0-.283.211-.565.564-.565h1.765c.282 0 .565.212.565.565v1.764c-.07.353-.283.565-.636.565m0-6.353H4.588a.557.557 0 0 1-.564-.565V9.318c0-.283.211-.565.564-.565h1.765c.282 0 .565.212.565.565v1.764c-.07.353-.283.565-.636.565M11.93 18h-1.764a.557.557 0 0 1-.565-.565v-1.764c0-.283.212-.565.565-.565h1.764c.283 0 .565.212.565.565v1.764c0 .353-.212.565-.565.565m0-6.353h-1.764a.557.557 0 0 1-.565-.565V9.318c0-.283.212-.565.565-.565h1.764c.283 0 .565.212.565.565v1.764c0 .353-.212.565-.565.565M17.576 18h-1.764a.557.557 0 0 1-.565-.565v-1.764c0-.283.212-.565.565-.565h1.765c.282 0 .564.212.564.565v1.764c0 .353-.212.565-.564.565m0-6.353h-1.764a.557.557 0 0 1-.565-.565V9.318c0-.283.212-.565.565-.565h1.765c.282 0 .564.212.564.565v1.764c0 .353-.212.565-.564.565"/></svg>