<svg width="35" height="35" viewBox="0 0 35 35" fill="none" xmlns="http://www.w3.org/2000/svg">
<path d="M20 20H15C13.6193 20 12.5 21.1193 12.5 22.5V32.5C12.5 33.8807 13.6193 35 15 35H20C21.3807 35 22.5 33.8807 22.5 32.5V22.5C22.5 21.1193 21.3807 20 20 20Z" fill="#9AC9FF"/>
<path d="M7.5 23.75H2.5C1.11929 23.75 0 24.8693 0 26.25V32.5C0 33.8807 1.11929 35 2.5 35H7.5C8.88071 35 10 33.8807 10 32.5V26.25C10 24.8693 8.88071 23.75 7.5 23.75Z" fill="#9AC9FF"/>
<path d="M32.5 13.75H27.5C26.1193 13.75 25 14.8693 25 16.25V32.5C25 33.8807 26.1193 35 27.5 35H32.5C33.8807 35 35 33.8807 35 32.5V16.25C35 14.8693 33.8807 13.75 32.5 13.75Z" fill="#9AC9FF"/>
<path d="M4.9998 18.75C5.10392 18.7499 5.20763 18.7369 5.30855 18.7113C9.78263 17.5715 14.0874 15.8484 18.1123 13.5863C22.4939 11.1102 26.4973 8.01784 29.9998 4.40375V7.5C29.9998 7.83152 30.1315 8.14946 30.3659 8.38388C30.6003 8.6183 30.9183 8.75 31.2498 8.75C31.5813 8.75 31.8993 8.6183 32.1337 8.38388C32.3681 8.14946 32.4998 7.83152 32.4998 7.5V1.25C32.4998 0.918479 32.3681 0.600537 32.1337 0.366116C31.8993 0.131696 31.5813 0 31.2498 0H24.9998C24.6683 0 24.3503 0.131696 24.1159 0.366116C23.8815 0.600537 23.7498 0.918479 23.7498 1.25C23.7498 1.58152 23.8815 1.89946 24.1159 2.13388C24.3503 2.3683 24.6683 2.5 24.9998 2.5H28.3448C24.979 6.01112 21.1192 9.0127 16.8873 11.41C13.0532 13.5627 8.95262 15.2018 4.69105 16.285C4.39235 16.3571 4.13069 16.5367 3.95601 16.7895C3.78133 17.0423 3.70588 17.3506 3.74407 17.6554C3.78226 17.9603 3.93141 18.2405 4.16304 18.4424C4.39467 18.6443 4.69255 18.7538 4.9998 18.75Z" fill="#9AC9FF"/>
</svg>
