<svg width="37" height="38" viewBox="0 0 37 38" fill="none" xmlns="http://www.w3.org/2000/svg">
<path d="M7.68649 15.3101H1.96757C1.4452 15.3114 0.944667 15.5198 0.5758 15.8897C0.206933 16.2596 -0.000144668 16.7607 7.58292e-08 17.283V35.8668C-0.000144668 36.3892 0.206933 36.8903 0.5758 37.2602C0.944667 37.6301 1.4452 37.8385 1.96757 37.8398H7.68649C8.2094 37.8387 8.71057 37.6304 9.08033 37.2607C9.45008 36.8909 9.65832 36.3897 9.65946 35.8668V17.283C9.65832 16.7601 9.45008 16.259 9.08033 15.8892C8.71057 15.5194 8.2094 15.3112 7.68649 15.3101ZM35.5405 21.7803C35.5404 20.8886 35.1866 20.0333 34.5568 19.402C34.5031 19.3438 34.4453 19.2896 34.3838 19.2398C35.0813 18.9442 35.6554 18.4167 36.0087 17.7466C36.3621 17.0765 36.4732 16.3049 36.3232 15.5623C36.1731 14.8197 35.7712 14.1518 35.1853 13.6714C34.5995 13.1911 33.8657 12.9279 33.1081 12.9263H21.3784C21.4432 12.8128 21.5027 12.7101 21.5568 12.6074C21.8943 12.0625 22.163 11.4778 22.3568 10.8668C22.6153 10.0198 22.7732 9.14535 22.827 8.26142C22.9019 6.98435 22.7205 5.7052 22.2934 4.49931C21.8664 3.29342 21.2024 2.18516 20.3405 1.2398C20.0159 0.870977 19.6202 0.571302 19.1773 0.358637C18.7343 0.145972 18.253 0.0246695 17.7622 0.00196106C17.0916 -0.0237842 16.4361 0.204739 15.9269 0.641762C15.4178 1.07879 15.0925 1.69204 15.0162 2.35872C15.0117 2.38368 15.0099 2.40905 15.0108 2.43439V7.16953L11.8757 15.1155C11.6189 15.7617 11.2326 16.3485 10.7405 16.8398V35.1533C11.5144 35.3665 12.3018 35.5272 13.0973 35.6344C13.393 35.6739 13.6909 35.6938 13.9892 35.6939H29.8865C30.6722 35.6928 31.4258 35.3821 31.9838 34.829C32.2584 34.5543 32.4762 34.2281 32.6246 33.8692C32.773 33.5102 32.8491 33.1255 32.8487 32.7371C32.8505 32.0202 32.5889 31.3277 32.1135 30.7912C32.7396 30.6595 33.3159 30.3537 33.7758 29.909C34.2357 29.4642 34.5607 28.8985 34.7132 28.2772C34.8657 27.6558 34.8396 27.004 34.6379 26.3968C34.4361 25.7896 34.067 25.2518 33.573 24.8452C34.1596 24.5759 34.6568 24.1441 35.0056 23.6009C35.3543 23.0577 35.54 22.4259 35.5405 21.7803Z" fill="#9AC9FF"/>
</svg>
