<svg width="23" height="23" viewBox="0 0 23 23" fill="none" xmlns="http://www.w3.org/2000/svg">
<path d="M23.0004 3.66333C23.0004 3.49638 22.9908 3.32969 22.9494 3.16808C22.8085 2.61946 22.3636 2.28479 21.7654 2.28378C20.3888 2.28073 19.0122 2.28251 17.6355 2.28251C16.0642 2.28251 14.4923 2.28276 12.9209 2.28251C12.6771 2.28251 12.6772 2.27844 12.6721 2.02916C12.6647 1.6851 12.6939 1.34078 12.648 0.997224C12.5728 0.430562 12.0922 0.00747031 11.5095 0.00010115C10.9237 -0.00752212 10.4279 0.416585 10.3484 0.990617C10.2999 1.33951 10.3314 1.68992 10.3235 2.03958C10.3179 2.27666 10.3169 2.28225 10.0815 2.28225C7.15029 2.28251 4.21954 2.28327 1.28828 2.28149C0.869348 2.28124 0.509574 2.40092 0.246535 2.74498C0.106637 2.92743 0.042401 3.14038 0 3.36196V17.3156C0.0776929 17.8411 0.356727 18.1979 0.869602 18.3628C0.992997 18.4024 1.11893 18.3963 1.24461 18.3963C2.80507 18.3971 4.36528 18.3966 5.92624 18.3971C6.1611 18.3971 6.16516 18.4032 6.06284 18.6085C5.62918 19.4763 5.19502 20.3438 4.7611 21.2111C4.52777 21.6771 4.5298 22.1279 4.85479 22.5533C5.05385 22.8137 5.33618 22.9329 5.64594 23H5.88689C6.37539 22.9151 6.68159 22.6201 6.89563 22.1815C7.48213 20.9803 8.08819 19.7886 8.68003 18.5902C8.75036 18.4476 8.83287 18.3869 8.99613 18.3925C9.3686 18.4049 9.74158 18.4022 10.1143 18.3938C10.2715 18.39 10.3266 18.4448 10.3253 18.6026C10.3194 19.257 10.3205 19.9111 10.3243 20.5656C10.3271 21.0662 10.5094 21.4682 10.9699 21.7157C11.6552 22.0839 12.5454 21.6281 12.6459 20.8551C12.666 20.7011 12.6741 20.5468 12.6736 20.3916C12.6718 19.8005 12.6723 19.2095 12.6736 18.6181C12.6739 18.4062 12.6843 18.3971 12.9003 18.3966C13.2731 18.3958 13.646 18.4032 14.0185 18.393C14.168 18.3889 14.2442 18.4464 14.3084 18.5762C14.9018 19.7738 15.5081 20.9653 16.0928 22.1675C16.3031 22.5993 16.5999 22.8963 17.0747 22.9997H17.3502C17.6932 22.9205 18.0042 22.7947 18.2025 22.474C18.4208 22.121 18.4686 21.7511 18.3025 21.3737C18.1365 20.9958 17.943 20.6297 17.7589 20.2602C17.4827 19.705 17.2042 19.1515 16.9274 18.5971C16.834 18.4103 16.8424 18.3966 17.048 18.3966C18.6085 18.3963 20.1684 18.3966 21.7286 18.3963C22.4898 18.3961 22.9608 17.945 22.9986 17.1817C23.0009 17.1357 23.0004 17.0899 23.0004 17.0437C23.0004 12.5836 23.0004 8.1232 23.0007 3.66283L23.0004 3.66333ZM17.257 10.3357C17.257 11.0932 17.2628 11.8505 17.2552 12.6075C17.2476 13.3294 16.6905 13.8521 15.9915 13.8091C15.4426 13.7753 14.9356 13.276 14.9325 12.7256C14.9231 11.1367 14.9221 9.54748 14.9325 7.95854C14.9361 7.37434 15.4794 6.89001 16.0888 6.88899C16.7197 6.88772 17.2428 7.38831 17.2532 8.02969C17.2654 8.79811 17.256 9.56679 17.256 10.3357H17.257ZM10.3235 11.047C10.3235 10.3794 10.3194 9.83996 10.3245 9.30074C10.3296 8.79328 10.517 8.38417 10.992 8.14835C11.6984 7.79768 12.5555 8.26499 12.649 9.04714C12.666 9.18995 12.6731 9.33225 12.6731 9.47607C12.6723 10.4798 12.6739 11.4838 12.6721 12.488C12.6718 12.7548 12.6307 13.0123 12.49 13.2476C12.2455 13.6574 11.737 13.8905 11.2827 13.7941C10.7828 13.6882 10.3992 13.2819 10.3494 12.7932C10.2862 12.1696 10.3436 11.5435 10.3235 11.0472V11.047ZM5.74674 10.3029C5.76578 9.64836 6.29795 9.16225 6.92406 9.17521C7.57557 9.18893 8.0628 9.69613 8.06762 10.37C8.07067 10.7481 8.06839 11.1268 8.06839 11.5051C8.06839 11.8835 8.07042 12.2507 8.06813 12.6235C8.06331 13.2694 7.5809 13.7888 6.96875 13.8104C6.31928 13.8335 5.76756 13.3522 5.7475 12.6936C5.72338 11.8972 5.72414 11.0991 5.74674 10.3027V10.3029Z" fill="#5D9CE5"/>
</svg>
