<svg width="39" height="40" viewBox="0 0 39 40" fill="none" xmlns="http://www.w3.org/2000/svg">
<path d="M36.9353 24.3398L36.0634 23.8367C33.1783 22.1711 33.1712 17.8328 36.0634 16.1633L36.9353 15.6602C38.0548 15.0133 38.4392 13.5773 37.7931 12.4586L34.9548 7.54141C34.3087 6.42266 32.872 6.03828 31.7533 6.68359L30.8845 7.18516C28.0197 8.83906 24.2361 6.71328 24.2361 3.35469V2.34375C24.2361 1.05156 23.1845 0 21.8923 0H16.215C14.9228 0 13.8712 1.05156 13.8712 2.34375V3.35469C13.8712 6.71406 10.0861 8.83906 7.22202 7.18516L6.35405 6.68359C5.23217 6.03594 3.80014 6.41953 3.15249 7.54141L0.313424 12.4586C-0.33267 13.5773 0.0524864 15.0133 1.17124 15.6602L2.04389 16.1633C4.92827 17.8289 4.9353 22.1672 2.04389 23.8367L1.17124 24.3398C0.0524864 24.9867 -0.33267 26.4227 0.313424 27.5414L3.15249 32.4586C3.79858 33.5773 5.23452 33.9625 6.35405 33.3164L7.22202 32.8148C10.0884 31.1602 13.8712 33.2914 13.8712 36.6453V37.6562C13.8712 38.9484 14.9228 40 16.215 40H21.8923C23.1845 40 24.2361 38.9484 24.2361 37.6562V36.6453C24.2361 33.2867 28.0205 31.1609 30.8845 32.8148L31.7533 33.3164C32.872 33.9625 34.3087 33.5773 34.9548 32.4586L37.7931 27.5414C38.4408 26.4203 38.0572 24.9883 36.9353 24.3398ZM19.0533 30.0484C13.5126 30.0484 9.00483 25.5406 9.00483 20C9.00483 14.4594 13.5126 9.95156 19.0533 9.95156C24.5947 9.95156 29.1025 14.4594 29.1025 20C29.1025 25.5406 24.5947 30.0484 19.0533 30.0484Z" fill="#9AC9FF"/>
<path d="M19.0533 12.2954C14.8049 12.2954 11.3486 15.7517 11.3486 20.0001C11.3486 24.2485 14.8049 27.7048 19.0533 27.7048C23.3018 27.7048 26.7588 24.2485 26.7588 20.0001C26.7588 15.7517 23.3018 12.2954 19.0533 12.2954ZM23.1572 19.1571L18.351 22.7251C17.8736 23.079 17.2057 23.0204 16.7979 22.586L14.7939 20.4501C14.351 19.9782 14.3744 19.236 14.8463 18.7938C15.3182 18.3509 16.0596 18.3743 16.5025 18.8462L17.7924 20.2204L21.7604 17.2751C22.2799 16.8899 23.0143 16.9985 23.4002 17.5181C23.7854 18.0376 23.6768 18.772 23.1572 19.1571Z" fill="#9AC9FF"/>
</svg>
