<svg xmlns="http://www.w3.org/2000/svg" width="800" height="800" fill="none" viewBox="-2.4 -2.4 28.8 28.8"><rect width="28.8" height="28.8" x="-2.4" y="-2.4" fill="#fff" stroke-width="0" rx="14.4"/><path fill="#0af" fill-rule="evenodd" d="M3 12a9 9 0 0 1 18 0 8.97 8.97 0 0 1-2.636 6.364 1 1 0 1 0 1.414 1.414A10.97 10.97 0 0 0 23 12c0-6.075-4.925-11-11-11S1 5.925 1 12c0 3.037 1.232 5.789 3.222 7.778a1 1 0 0 0 1.414-1.414A8.97 8.97 0 0 1 3 12m4 0a5 5 0 1 1 8.536 3.536 1 1 0 0 0 1.414 1.414 7 7 0 1 0-9.9 0 1 1 0 1 0 1.414-1.414A4.98 4.98 0 0 1 7 12m7.5 0a2.5 2.5 0 1 1-5 0 2.5 2.5 0 0 1 5 0m-4.827 5.494a2.332 2.332 0 1 1 4.654 0l-.322 4.636a2.01 2.01 0 0 1-4.01 0z" clip-rule="evenodd"/></svg>