<svg width="40" height="40" viewBox="0 0 40 40" fill="none" xmlns="http://www.w3.org/2000/svg">
<path d="M20 0C8.95419 0 0 8.95419 0 20C0 31.0458 8.95419 40 20 40C31.0458 40 40 31.0458 40 20C40 8.95419 31.0458 0 20 0ZM11.2163 17.4847H18.0294L15.6167 22.3097H11.2158L11.2163 17.4847ZM8.52866 7.03444V13.4539H3.96886C4.98256 10.9742 6.55439 8.78278 8.52866 7.03444ZM2.68718 20C2.68718 19.1457 2.75002 18.3062 2.86968 17.4847H8.52866V24.9969H14.2731L9.78354 33.9765C5.48155 30.8263 2.68718 25.7403 2.68718 20ZM20 37.3128C17.6228 37.3128 15.3575 36.8332 13.2954 35.9665L18.7802 24.9973H36.5796C34.4348 32.1223 27.8241 37.3128 20 37.3128ZM20.1238 22.3097L24.5519 13.4539H11.2163V5.07912C13.7917 3.5595 16.794 2.68718 20.0005 2.68718C29.5622 2.68718 37.3133 10.4382 37.3133 20C37.3133 20.7831 37.2606 21.5543 37.1594 22.3097H20.1238Z" fill="black"/>
</svg>
