<svg width="0" height="0" class="hidden">
  <symbol xmlns="http://www.w3.org/2000/svg" fill="none" viewBox="0 0 24 24" id="socials-instagram">
    <g fill="#fff">
      <path fill-rule="evenodd" d="M12 18a6 6 0 1 0 0-12 6 6 0 0 0 0 12m0-2a4 4 0 1 0 0-8 4 4 0 0 0 0 8" clip-rule="evenodd"></path>
      <path d="M18 5a1 1 0 1 0 0 2 1 1 0 0 0 0-2"></path>
      <path fill-rule="evenodd" d="M1.654 4.276C1 5.56 1 7.24 1 10.6v2.8c0 3.36 0 5.04.654 6.324a6 6 0 0 0 2.622 2.622C5.56 23 7.24 23 10.6 23h2.8c3.36 0 5.04 0 6.324-.654a6 6 0 0 0 2.622-2.622C23 18.44 23 16.76 23 13.4v-2.8c0-3.36 0-5.04-.654-6.324a6 6 0 0 0-2.622-2.622C18.44 1 16.76 1 13.4 1h-2.8c-3.36 0-5.04 0-6.324.654a6 6 0 0 0-2.622 2.622M13.4 3h-2.8c-1.713 0-2.878.002-3.778.075-.877.072-1.325.202-1.638.361a4 4 0 0 0-1.748 1.748c-.16.313-.29.761-.36 1.638C3.001 7.722 3 8.887 3 10.6v2.8c0 1.713.002 2.878.075 3.778.072.877.202 1.325.361 1.638a4 4 0 0 0 1.748 1.748c.313.16.761.29 1.638.36.9.074 2.065.076 3.778.076h2.8c1.713 0 2.878-.002 3.778-.075.877-.072 1.325-.202 1.638-.361a4 4 0 0 0 1.748-1.748c.16-.313.29-.761.36-1.638.074-.9.076-2.065.076-3.778v-2.8c0-1.713-.002-2.878-.075-3.778-.072-.877-.202-1.325-.361-1.638a4 4 0 0 0-1.748-1.748c-.313-.16-.761-.29-1.638-.36C16.278 3.001 15.113 3 13.4 3" clip-rule="evenodd"></path>
    </g>
  </symbol>
  <symbol xmlns="http://www.w3.org/2000/svg" fill="none" viewBox="0 0 24 24" id="socials-podcast">
    <rect fill="#fff" stroke-width="0" rx="14.4"></rect>
    <path fill="#fff" fill-rule="evenodd" d="M3 12a9 9 0 0 1 18 0 8.97 8.97 0 0 1-2.636 6.364 1 1 0 1 0 1.414 1.414A10.97 10.97 0 0 0 23 12c0-6.075-4.925-11-11-11S1 5.925 1 12c0 3.037 1.232 5.789 3.222 7.778a1 1 0 0 0 1.414-1.414A8.97 8.97 0 0 1 3 12m4 0a5 5 0 1 1 8.536 3.536 1 1 0 0 0 1.414 1.414 7 7 0 1 0-9.9 0 1 1 0 1 0 1.414-1.414A4.98 4.98 0 0 1 7 12m7.5 0a2.5 2.5 0 1 1-5 0 2.5 2.5 0 0 1 5 0m-4.827 5.494a2.332 2.332 0 1 1 4.654 0l-.322 4.636a2.01 2.01 0 0 1-4.01 0z" clip-rule="evenodd"></path>
  </symbol>
  <symbol xmlns="http://www.w3.org/2000/svg" fill="none" viewBox="0 0 192 192" id="socials-spotify">
    <path fill="#fff" d="M24.419 57.512a6 6 0 1 0 3.162 11.576L24.42 57.512Zm5.706 34.312a6 6 0 0 0 3.421 11.502zm5.66 34.469a6 6 0 1 0 3.817 11.377zm105.947 19.99a6.001 6.001 0 0 0 5.69-10.566zm14.797-31.392a6 6 0 1 0 5.53-10.65zm14.758-31.384a6 6 0 0 0 5.426-10.704zM27.581 69.087C44.481 64.472 62.304 62 80.726 62V50c-19.5 0-38.385 2.615-56.307 7.512zm5.965 34.239c14.92-4.438 30.759-6.828 47.18-6.828v-12c-17.59 0-34.582 2.56-50.602 7.326zm6.056 34.344c12.886-4.324 26.718-6.674 41.124-6.674v-12c-15.718 0-30.839 2.565-44.941 7.297zm41.124-6.674c22.134 0 42.92 5.547 61.006 15.287l5.69-10.566c-19.799-10.662-42.536-16.721-66.696-16.721zm0-34.498c27.404 0 53.198 6.655 75.803 18.393l5.53-10.65c-24.28-12.607-51.967-19.743-81.333-19.743zm0-34.498c32.665 0 63.454 7.767 90.561 21.507l5.426-10.704C147.956 58.228 115.311 50 80.726 50z"></path>
  </symbol>
  <symbol xmlns="http://www.w3.org/2000/svg" viewBox="0 -7 48 48" id="socials-youtube">
    <path fill="#fff" fill-rule="evenodd" d="m19.044 23.27-.002-13.582 12.97 6.814zM47.52 7.334s-.47-3.33-1.908-4.798C43.786.61 41.74.601 40.803.49 34.086 0 24.011 0 24.011 0h-.022S13.914 0 7.197.49C6.258.6 4.214.61 2.387 2.535.948 4.003.48 7.334.48 7.334S0 11.247 0 15.158v3.668c0 3.912.48 7.823.48 7.823s.468 3.331 1.907 4.798c1.827 1.926 4.225 1.866 5.293 2.067C11.52 33.885 24 34 24 34s10.086-.015 16.803-.505c.938-.113 2.983-.122 4.809-2.048 1.438-1.467 1.908-4.798 1.908-4.798s.48-3.91.48-7.823v-3.668c0-3.911-.48-7.824-.48-7.824"></path>
  </symbol>
  <symbol xmlns="http://www.w3.org/2000/svg" fill="none" viewBox="0 0 24 24" id="user-icon">
    <path fill="currentColor" d="M12 12a6 6 0 1 0 0-12 6 6 0 0 0 0 12M12 14a9.01 9.01 0 0 0-9 9 1 1 0 0 0 1 1h16a1 1 0 0 0 1-1 9.01 9.01 0 0 0-9-9"></path>
  </symbol>
  <symbol xmlns="http://www.w3.org/2000/svg" fill="none" viewBox="0 0 24 24" id="moon-icon">
    <path fill="currentColor" d="M19.9 2.307a.483.483 0 0 0-.9 0l-.43 1.095a.48.48 0 0 1-.272.274l-1.091.432a.486.486 0 0 0 0 .903l1.091.432c.125.049.223.148.272.273L19 6.81c.162.41.74.41.9 0l.43-1.095a.48.48 0 0 1 .273-.273l1.091-.432a.486.486 0 0 0 0-.903l-1.091-.432a.48.48 0 0 1-.273-.274zM16.033 8.13a.483.483 0 0 0-.9 0l-.157.399a.48.48 0 0 1-.272.273l-.398.158a.486.486 0 0 0 0 .903l.398.157c.125.05.223.148.272.274l.157.399c.161.41.739.41.9 0l.157-.4a.48.48 0 0 1 .272-.273l.398-.157a.486.486 0 0 0 0-.903l-.398-.158a.48.48 0 0 1-.272-.273z"></path>
    <path fill="currentColor" d="M12 22c5.523 0 10-4.477 10-10 0-.463-.694-.54-.933-.143a6.5 6.5 0 1 1-8.924-8.924C12.54 2.693 12.463 2 12 2 6.477 2 2 6.477 2 12s4.477 10 10 10"></path>
  </symbol>
  <symbol xmlns="http://www.w3.org/2000/svg" fill="none" viewBox="0 0 24 24" id="sun-icon">
    <path fill="currentColor" d="M17 12a5 5 0 1 1-10 0 5 5 0 0 1 10 0"></path>
    <path fill="currentColor" fill-rule="evenodd" d="M12 1.25a.75.75 0 0 1 .75.75v2a.75.75 0 0 1-1.5 0V2a.75.75 0 0 1 .75-.75M3.669 3.716a.75.75 0 0 1 1.06-.047L6.95 5.7a.75.75 0 1 1-1.012 1.107L3.716 4.776a.75.75 0 0 1-.047-1.06m16.662 0a.75.75 0 0 1-.047 1.06l-2.222 2.031A.75.75 0 0 1 17.05 5.7l2.222-2.031a.75.75 0 0 1 1.06.047M1.25 12a.75.75 0 0 1 .75-.75h2a.75.75 0 0 1 0 1.5H2a.75.75 0 0 1-.75-.75m18 0a.75.75 0 0 1 .75-.75h2a.75.75 0 0 1 0 1.5h-2a.75.75 0 0 1-.75-.75m-2.224 5.025a.75.75 0 0 1 1.06 0l2.222 2.223a.75.75 0 0 1-1.06 1.06l-2.222-2.222a.75.75 0 0 1 0-1.06m-10.051 0a.75.75 0 0 1 0 1.061l-2.223 2.222a.75.75 0 0 1-1.06-1.06l2.222-2.223a.75.75 0 0 1 1.06 0M12 19.25a.75.75 0 0 1 .75.75v2a.75.75 0 0 1-1.5 0v-2a.75.75 0 0 1 .75-.75" clip-rule="evenodd"></path>
  </symbol>
  <symbol xmlns="http://www.w3.org/2000/svg" fill="none" viewBox="0 0 23 22" id="calendar">
    <path fill="#5d9ce5" d="M20.188 0h-2.117v2.118a.707.707 0 0 1-.706.706.707.707 0 0 1-.706-.706V0H5.365v2.118a.707.707 0 0 1-.706.706.707.707 0 0 1-.706-.706V0H1.835C.776 0 0 .918 0 2.118v2.54h22.588v-2.54c0-1.2-1.27-2.118-2.4-2.118M0 6.141V19.06c0 1.27.776 2.117 1.906 2.117h18.353c1.13 0 2.4-.917 2.4-2.117V6.14zM6.282 18H4.588a.557.557 0 0 1-.564-.565v-1.764c0-.283.211-.565.564-.565h1.765c.282 0 .565.212.565.565v1.764c-.07.353-.283.565-.636.565m0-6.353H4.588a.557.557 0 0 1-.564-.565V9.318c0-.283.211-.565.564-.565h1.765c.282 0 .565.212.565.565v1.764c-.07.353-.283.565-.636.565M11.93 18h-1.764a.557.557 0 0 1-.565-.565v-1.764c0-.283.212-.565.565-.565h1.764c.283 0 .565.212.565.565v1.764c0 .353-.212.565-.565.565m0-6.353h-1.764a.557.557 0 0 1-.565-.565V9.318c0-.283.212-.565.565-.565h1.764c.283 0 .565.212.565.565v1.764c0 .353-.212.565-.565.565M17.576 18h-1.764a.557.557 0 0 1-.565-.565v-1.764c0-.283.212-.565.565-.565h1.765c.282 0 .564.212.564.565v1.764c0 .353-.212.565-.564.565m0-6.353h-1.764a.557.557 0 0 1-.565-.565V9.318c0-.283.212-.565.565-.565h1.765c.282 0 .564.212.564.565v1.764c0 .353-.212.565-.564.565"></path>
  </symbol>
</svg>